# xmcd
#
# Track frame offsets: 
#        150
#        19326
#        36920
#        61972
#        93063
#        165793
#        197758
#        215914
#        233719
#        251409
#
# Disc length: 3944 seconds
#
# Revision: 0
# Processed by: cddbd v1.5.1PL0 Copyright (c) Steve Scherf et al.
# Submitted via: ExactAudioCopy v0.95a5
#
DISCID=7d0f660a
DTITLE=Rick Russell And The Cadillac Horns - Live At Harrys Disk 2
DYEAR=2005
DGENRE=Blues
TTITLE0=Two Bones And A Pick
TTITLE1=Whiskey Gin And Wine
TTITLE2=Rock This House
TTITLE3=Same Old Blues
TTITLE4=Elmore James TwoFor
TTITLE5=Love Is Nothing But The Blues
TTITLE6=Rich Woman
TTITLE7=Reconsider Baby
TTITLE8=Shes Tuff
TTITLE9=Tramp Dont Lose Your Cool
EXTD=
EXTT0=
EXTT1=
EXTT2=
EXTT3=
EXTT4=
EXTT5=
EXTT6=
EXTT7=
EXTT8=
EXTT9=
PLAYORDER=
